#format: frame checksums
#version: 2
#hash: MD5
#extradata 0,                              42, e89deaac1c1a77d78033d7d9c66b8264
#tb 0: 1/61440
#media_type 0: video
#codec_id 0: ffv1
#dimensions 0: 640x360
#sar 0: 0/1
#stream#, dts,        pts, duration,     size, hash
0,          0,          0,     2048,    19409, c6f9de5a82ce0af59b3fe608ae335721
0,       2048,       2048,     2048,    17460, 6c1d542002db49a1186ed8b4018bd04b
0,       4096,       4096,     2048,    19096, 04b10b0f380564977c4473c86b89e2e0
0,       6144,       6144,     2048,    19040, c62d5b1d091b2d5638ca89de9cdbc1ba
0,       8192,       8192,     2048,    17784, e4751571bf1d4971444b0a7a36d28c36
0,      10240,      10240,     2048,    18558, 37443672e64a07aae13fa670a617110b
0,      12288,      12288,     2048,    19421, 886d75983ec1428309f57dbf0066800a
0,      14336,      14336,     2048,    17709, 03c3766b6b852380b9d628086dee55d3
0,      16384,      16384,     2048,    18824, 7b7a3ef8dbfc73620406a2aaaed9fcbb
0,      18432,      18432,     2048,    19087, 9f0cb5554cebf9135356c538fe42c359
0,      20480,      20480,     2048,    18890, 36075a4cef0e5bb391da01b48d4c8270
0,      22528,      22528,     2048,    18175, 33630f1c8bce187a8587df2f21d70afa
0,      24576,      24576,     2048,    19377, 6816d444787f07df37be6d94392b23b9
0,      26624,      26624,     2048,    19650, 2e276706de9a5495d395fca280990f8e
0,      28672,      28672,     2048,    18732, 2d5a2309b4ed3046bd74e9c3375f3cfb
0,      30720,      30720,     2048,    18711, 4997a6b9cb7e510a29090439eb1df22b
0,      32768,      32768,     2048,    19792, 3ab9323926848070404a4d512496286e
0,      34816,      34816,     2048,    19554, ac0507a37250444359790737be9a7011
0,      36864,      36864,     2048,    20533, 9be99204bc74846cd8551bda15fe7432
0,      38912,      38912,     2048,    19205, 18c6459b0b25de279ab43fc91fd8f1d7
0,      40960,      40960,     2048,    18744, 9e0b43cfea1dd7281a171e281a4bb408
0,      43008,      43008,     2048,    17423, 220dd2e1870de1b2278c4806d3a4010f
0,      45056,      45056,     2048,    17118, a1d0bf979c84ed65aacbc3d1b3384d1c
0,      47104,      47104,     2048,    18767, 929a7b351a752c5ffc05335be147c107
0,      49152,      49152,     2048,    17241, c8a9f9df1da07167f010c7f22c73bf0c
0,      51200,      51200,     2048,    18468, c65e9a8f0daadd2df14a78e66d7520bf
0,      53248,      53248,     2048,    18840, 5cb35a03eb16d4d1ae2e55389de0815e
0,      55296,      55296,     2048,    17481, 29cb81bd2cff8127a51a55d67dc0f3dc
0,      57344,      57344,     2048,    19231, f228077865c3dd4dccb4d3b04f770744
0,      59392,      59392,     2048,    19231, f228077865c3dd4dccb4d3b04f770744
